<svg width="76" height="38" fill="none" xmlns="http://www.w3.org/2000/svg"><g filter="url(#filter0_d)"><g clip-path="url(#clip0)"><rect x="6" y="3.935" width="63.5" height="25.105" rx="4.43" fill="#FF5674"/><path d="M26.044 21.222c2.835 0 4.179-1.418 4.179-3.072 0-3.795-6.129-2.362-6.129-4.563 0-.782.65-1.403 2.245-1.403.9 0 1.92.266 2.85.813l.605-1.492c-.9-.59-2.2-.916-3.44-.916-2.836 0-4.165 1.418-4.165 3.087 0 3.84 6.143 2.377 6.143 4.607 0 .768-.679 1.344-2.288 1.344-1.27 0-2.585-.472-3.412-1.137l-.664 1.492c.856.738 2.466 1.24 4.076 1.24zm9.213-8.122c-1.27 0-2.496.325-3.337.975l.723 1.343c.59-.487 1.507-.782 2.392-.782 1.315 0 1.965.635 1.965 1.713v.118h-2.038c-2.393 0-3.279 1.034-3.279 2.348 0 1.373 1.137 2.363 2.939 2.363 1.181 0 2.038-.384 2.481-1.064v.96h1.742v-4.622c0-2.274-1.314-3.352-3.588-3.352zm-.251 6.734c-.945 0-1.506-.428-1.506-1.093 0-.576.34-1.048 1.595-1.048H37v.915c-.31.812-1.093 1.226-1.994 1.226zm6.504 1.24h1.846V10.117H41.51v10.957zm11.977-3.898c0-2.466-1.683-4.076-3.987-4.076-2.348 0-4.076 1.683-4.076 4.031 0 2.349 1.713 4.047 4.357 4.047 1.358 0 2.466-.443 3.175-1.285l-.99-1.137c-.561.576-1.255.856-2.141.856-1.373 0-2.333-.738-2.555-1.89h6.188a8.07 8.07 0 00.03-.546zm-3.987-2.6c1.21 0 2.082.783 2.23 1.92h-4.475c.178-1.151 1.049-1.92 2.245-1.92z" fill="#fff"/></g></g><defs><clipPath id="clip0"><rect x="6" y="3.935" width="63.5" height="25.105" rx="4.43" fill="#fff"/></clipPath><filter id="filter0_d" x=".093" y=".981" width="75.314" height="36.919" filterUnits="userSpaceOnUse" color-interpolation-filters="sRGB"><feFlood flood-opacity="0" result="BackgroundImageFix"/><feColorMatrix in="SourceAlpha" values="0 0 0 0 0 0 0 0 0 0 0 0 0 0 0 0 0 0 127 0"/><feOffset dy="2.953"/><feGaussianBlur stdDeviation="2.953"/><feColorMatrix values="0 0 0 0 0 0 0 0 0 0 0 0 0 0 0 0 0 0 0.1 0"/><feBlend in2="BackgroundImageFix" result="effect1_dropShadow"/><feBlend in="SourceGraphic" in2="effect1_dropShadow" result="shape"/></filter></defs></svg>