<svg width="41" height="41" fill="none" xmlns="http://www.w3.org/2000/svg"><path d="M37.145 10.179a13.69 13.69 0 01-3.931 1.056 6.809 6.809 0 003.002-3.762 13.475 13.475 0 01-4.33 1.649 6.81 6.81 0 00-4.988-2.157 6.823 6.823 0 00-6.825 6.828c0 .528.064 1.057.168 1.565A19.396 19.396 0 016.168 8.213a6.777 6.777 0 00-.928 3.447 6.83 6.83 0 003.042 5.687 6.886 6.886 0 01-3.086-.868v.084a6.827 6.827 0 005.471 6.7c-.587.153-1.19.23-1.797.232a9.1 9.1 0 01-1.289-.104 6.837 6.837 0 006.38 4.735 13.679 13.679 0 01-8.473 2.918c-.572 0-1.1-.02-1.65-.084a19.328 19.328 0 0010.484 3.062c12.552 0 19.42-10.399 19.42-19.424 0-.297 0-.593-.02-.889a14.7 14.7 0 003.422-3.53z" fill="#fff"/></svg>