<svg width="9" height="15" viewBox="0 0 9 15" fill="none" xmlns="http://www.w3.org/2000/svg">
<path d="M0.757159 1.0466C0.644374 1.15916 0.554895 1.29285 0.493844 1.44003C0.432793 1.5872 0.401367 1.74498 0.401367 1.90432C0.401367 2.06365 0.432793 2.22143 0.493844 2.36861C0.554895 2.51578 0.644374 2.64947 0.757159 2.76203L5.47762 7.48249L0.757159 12.2029C0.529679 12.4304 0.401882 12.739 0.401882 13.0607C0.401882 13.3824 0.529679 13.6909 0.757159 13.9184C0.984638 14.1458 1.29317 14.2736 1.61487 14.2736C1.93658 14.2736 2.2451 14.1458 2.47258 13.9184L8.05684 8.33412C8.16962 8.22156 8.2591 8.08787 8.32015 7.94069C8.3812 7.79351 8.41263 7.63574 8.41263 7.4764C8.41263 7.31707 8.3812 7.15929 8.32015 7.01211C8.2591 6.86494 8.16962 6.73124 8.05684 6.61869L2.47258 1.03444C2.01027 0.572125 1.23164 0.572125 0.757159 1.0466Z" fill="#48AAFF"/>
</svg>
