<svg width="42" height="41" viewBox="0 0 42 41" fill="none" xmlns="http://www.w3.org/2000/svg">
<path d="M36.2097 4.48291H6.75056C6.0421 4.48291 5.46973 5.05528 5.46973 5.76374V35.2229C5.46973 35.9313 6.0421 36.5037 6.75056 36.5037H36.2097C36.9181 36.5037 37.4905 35.9313 37.4905 35.2229V5.76374C37.4905 5.05528 36.9181 4.48291 36.2097 4.48291ZM32.5113 13.829H29.9536C27.9483 13.829 27.5601 14.7816 27.5601 16.1825V19.2685H32.3472L31.7228 24.0996H27.5601V36.5037H22.5688V24.1036H18.3941V19.2685H22.5688V15.7062C22.5688 11.5715 25.0945 9.31805 28.7849 9.31805C30.554 9.31805 32.071 9.45013 32.5153 9.51017V13.829H32.5113Z" fill="white"/>
</svg>
